/* XPM */
static char * live_installer_xpm[] = {
"32 32 231 2",
"  	c None",
". 	c #003045",
"+ 	c #003850",
"@ 	c #003A52",
"# 	c #00344A",
"$ 	c #00293A",
"% 	c #004360",
"& 	c #00415D",
"* 	c #003F5A",
"= 	c #002D40",
"- 	c #004664",
"; 	c #003800",
"> 	c #005A00",
", 	c #006C00",
"' 	c #006E00",
") 	c #003D00",
"! 	c #00405B",
"~ 	c #004600",
"{ 	c #008000",
"] 	c #008300",
"^ 	c #008100",
"/ 	c #007B00",
"( 	c #004562",
"_ 	c #004361",
": 	c #006500",
"< 	c #007E00",
"[ 	c #007500",
"} 	c #004765",
"| 	c #007A00",
"1 	c #007F00",
"2 	c #007800",
"3 	c #003D57",
"4 	c #003F5B",
"5 	c #007C00",
"6 	c #007600",
"7 	c #003A53",
"8 	c #007300",
"9 	c #007100",
"0 	c #008200",
"a 	c #494949",
"b 	c #4E4E4E",
"c 	c #555555",
"d 	c #4A4A4A",
"e 	c #007200",
"f 	c #00405C",
"g 	c #004665",
"h 	c #004F00",
"i 	c #5B5B5B",
"j 	c #656565",
"k 	c #666666",
"l 	c #646464",
"m 	c #5F5F5F",
"n 	c #00425D",
"o 	c #00415E",
"p 	c #4D4D4D",
"q 	c #676767",
"r 	c #00425E",
"s 	c #004461",
"t 	c #005300",
"u 	c #585858",
"v 	c #636363",
"w 	c #606060",
"x 	c #5E5E5E",
"y 	c #004663",
"z 	c #626262",
"A 	c #00415F",
"B 	c #004564",
"C 	c #515151",
"D 	c #747671",
"E 	c #737570",
"F 	c #747771",
"G 	c #686865",
"H 	c #696A67",
"I 	c #666764",
"J 	c #71736E",
"K 	c #3C5A63",
"L 	c #345967",
"M 	c #265567",
"N 	c #004263",
"O 	c #003D58",
"P 	c #999A95",
"Q 	c #D4D6D1",
"R 	c #E6E9E3",
"S 	c #E5E8E2",
"T 	c #E8EAE3",
"U 	c #E9EAE3",
"V 	c #E1E0D9",
"W 	c #5D7A83",
"X 	c #CDCECA",
"Y 	c #D5D9D1",
"Z 	c #D4D8D0",
"` 	c #D5D9D0",
" .	c #C1C8C8",
"..	c #007D00",
"+.	c #CFD1CC",
"@.	c #D0D4CC",
"#.	c #CBCEC7",
"$.	c #C8CAC7",
"%.	c #C8CCC7",
"&.	c #C9CDC7",
"*.	c #CACDC7",
"=.	c #CACCC7",
"-.	c #CBCEC8",
";.	c #CCD1CE",
">.	c #007900",
",.	c #CFD1CD",
"'.	c #CED2C9",
").	c #D9E0E4",
"!.	c #7CA8D7",
"~.	c #86AFD9",
"{.	c #86AED9",
"].	c #85ADD9",
"^.	c #84ADD8",
"/.	c #9BBCE0",
"(.	c #FFFFFF",
"_.	c #EDEEEC",
":.	c #CFD3CF",
"<.	c #636463",
"[.	c #D0D2CE",
"}.	c #D8E1E5",
"|.	c #6595CB",
"1.	c #729ED0",
"2.	c #77A1CF",
"3.	c #7EA7D3",
"4.	c #7BA5D0",
"5.	c #90B3D8",
"6.	c #FDFDFD",
"7.	c #F1F1EF",
"8.	c #CDD2C9",
"9.	c #D2D4D0",
"0.	c #676766",
"a.	c #D0D4CB",
"b.	c #D1D5D1",
"c.	c #C9D3DC",
"d.	c #C9D3DB",
"e.	c #CAD3D8",
"f.	c #D8E0E4",
"g.	c #D4DBE0",
"h.	c #DADFE2",
"i.	c #ECEDEA",
"j.	c #E1E2DF",
"k.	c #E5E7E4",
"l.	c #D5D8D2",
"m.	c #D0D3CB",
"n.	c #D3D5D0",
"o.	c #003951",
"p.	c #676867",
"q.	c #CED0CC",
"r.	c #D1D6CD",
"s.	c #D2D6CE",
"t.	c #D0D5CD",
"u.	c #CED2CB",
"v.	c #E6E7E3",
"w.	c #E0E1DC",
"x.	c #E0E2DD",
"y.	c #E4E5E1",
"z.	c #CFD2CA",
"A.	c #D3D7CE",
"B.	c #D1D5CD",
"C.	c #9C9E9A",
"D.	c #DCDFD9",
"E.	c #D7DAD3",
"F.	c #D7DBD3",
"G.	c #D9DCD5",
"H.	c #D1D4CD",
"I.	c #EFEFED",
"J.	c #E9EBE7",
"K.	c #EAEBE7",
"L.	c #D1D4CC",
"M.	c #DCDCD5",
"N.	c #DADBD3",
"O.	c #D7DAD2",
"P.	c #D6DAD3",
"Q.	c #ADAEA9",
"R.	c #00364D",
"S.	c #7B7C79",
"T.	c #81827F",
"U.	c #7F807E",
"V.	c #7F807D",
"W.	c #999A96",
"X.	c #F3F4F3",
"Y.	c #EEEEEC",
"Z.	c #F2F2F0",
"`.	c #7A9095",
" +	c #50717D",
".+	c #4F717D",
"++	c #898F8E",
"@+	c #006A00",
"#+	c #006B00",
"$+	c #F1F1F0",
"%+	c #EDEEEB",
"&+	c #F3F2F0",
"*+	c #417082",
"=+	c #003D5C",
"-+	c #002C4C",
";+	c #005400",
">+	c #006300",
",+	c #C2C4BF",
"'+	c #B3BCBB",
")+	c #B8C3C4",
"!+	c #F3F3F1",
"~+	c #B4C1C2",
"{+	c #C1C7C6",
"]+	c #C6C8C3",
"^+	c #003E59",
"/+	c #003F59",
"(+	c #00405D",
"_+	c #5A8291",
":+	c #F9F8F7",
"<+	c #F5F4F2",
"[+	c #F6F6F5",
"}+	c #CACCC6",
"|+	c #00374F",
"1+	c #004766",
"2+	c #004764",
"3+	c #7C99A2",
"4+	c #FBF9F7",
"5+	c #F7F5F5",
"6+	c #CED0CA",
"7+	c #006D00",
"8+	c #006F00",
"9+	c #003B54",
"0+	c #00344B",
"a+	c #DADBD7",
"b+	c #F4F4F3",
"c+	c #F0F0ED",
"d+	c #DBDCD8",
"e+	c #E0E0DE",
"f+	c #F7F7F6",
"g+	c #E0E1DD",
"h+	c #DDDEDB",
"                              . + @ # $                         ",
"                                        % & * =                 ",
"                                              - &               ",
"                            ; > , ' )           & !             ",
"                      ~ ' { ] ^ ^ ^ /             ( _           ",
"                  : < ] ^ { { { { { { { / [         } !         ",
"                | { { { { { { { { 1 1 1 { ^ 2       3 - 4       ",
"              < { { { { ^ 5             6 < < '       % - 7     ",
"            8 { { { { { 2                   / {       & - -     ",
"          9 0 { { ^ /         a b c d         / e     f g } 3   ",
"        h ^ { { { 6       i j k k k k j l m     1     n - - o   ",
"        { { { { <       p q k k k k k k k q i   :     r - - s   ",
"      t ] { { ^ e     u q k k v w x l k k k v         & - - y   ",
"      ' ^ { { /       z k k z           k k k         A B B -   ",
"      [ { { {       C q k k       D E F G H H I D E J K L M N O ",
"      | { { 1       c k k     P Q R S S R R R R S S S T U V W * ",
"      5 { { /         k k     X Y Z Y Y Y Y Y Y Y Y Y Y Z `  .  ",
"      ..{ { |         k k     +.@.#.$.%.%.%.%.&.*.*.*.=.-.@.;.  ",
"  ' >.{ { { 5         j k z   ,.'.).!.~.{.].^./.(.(.(.(._.'.:.  ",
"  < { { { { {         z k k <.[.'.}.|.1.2.3.4.5.(.6.(.(.7.8.9.  ",
"  ..{ { { { 5         i q k 0.,.a.b.c.d.e.f.g.h.i.j.k.k.l.m.n.  ",
"    ..1 { { |     o.    v k p.q.r.s.t.s.u.v.w.x.y.z.s.r.A.B.9.  ",
"        6 { >.      !     x k C.D.E.F.G.H.I.J.K.i.L.M.N.O.P.Q.  ",
"          { >.      R.        m S.T.U.V.W.X.Y.Y.Z.`. +.+++      ",
"        @+^ 1 #+      r                   $+%+Y.&+*+=+-+        ",
"      ;+] { { ^ >+      ( - 4       ,+'+)+!+Y.Y.$+~+{+]+        ",
"        5 >.6 < 5         ^+% ( /+(+_+:+<+Y.Y.Y.Y.<+[+}+        ",
"              e 0 >.          |+1+g 2+3+4+I.I.I.I.5+6+          ",
"                7+^ 8+            9+0+  a+b+c+c+b+d+            ",
"                  ..^ < '                 e+f+f+g+              ",
"                  8 , 7+| | 5               h+h+                ",
"                                                                "};
