/* XPM */
static char * live_installer_xpm[] = {
"48 47 336 2",
"  	c None",
". 	c #002B3E",
"+ 	c #003248",
"@ 	c #00374F",
"# 	c #003851",
"$ 	c #00374E",
"% 	c #003247",
"& 	c #00293B",
"* 	c #00202E",
"= 	c #004360",
"- 	c #00415D",
"; 	c #004664",
"> 	c #002F43",
", 	c #00415E",
"' 	c #004563",
") 	c #00405B",
"! 	c #00425F",
"~ 	c #00405C",
"{ 	c #003D57",
"] 	c #002E42",
"^ 	c #003B00",
"/ 	c #005200",
"( 	c #006100",
"_ 	c #006C00",
": 	c #007000",
"< 	c #004800",
"[ 	c #003C56",
"} 	c #003850",
"| 	c #004400",
"1 	c #006500",
"2 	c #007E00",
"3 	c #008000",
"4 	c #004600",
"5 	c #007500",
"6 	c #007C00",
"7 	c #005700",
"8 	c #003349",
"9 	c #006700",
"0 	c #007900",
"a 	c #007800",
"b 	c #007F00",
"c 	c #003B54",
"d 	c #004462",
"e 	c #002E41",
"f 	c #007600",
"g 	c #007B00",
"h 	c #007700",
"i 	c #006800",
"j 	c #007A00",
"k 	c #007200",
"l 	c #006E00",
"m 	c #303030",
"n 	c #393939",
"o 	c #4B4B4B",
"p 	c #464646",
"q 	c #333333",
"r 	c #007100",
"s 	c #003A53",
"t 	c #006000",
"u 	c #353535",
"v 	c #4F4F4F",
"w 	c #616161",
"x 	c #666666",
"y 	c #656565",
"z 	c #575757",
"A 	c #383838",
"B 	c #004500",
"C 	c #007300",
"D 	c #424242",
"E 	c #5E5E5E",
"F 	c #00425E",
"G 	c #00344B",
"H 	c #006300",
"I 	c #003952",
"J 	c #007D00",
"K 	c #006400",
"L 	c #003045",
"M 	c #005800",
"N 	c #5F5F5F",
"O 	c #5D5D5D",
"P 	c #636363",
"Q 	c #5A5A5A",
"R 	c #004562",
"S 	c #006B00",
"T 	c #4E4E4E",
"U 	c #606060",
"V 	c #646464",
"W 	c #565656",
"X 	c #4C4C4C",
"Y 	c #7E807B",
"Z 	c #7B7D78",
"` 	c #71726E",
" .	c #727370",
"..	c #6A6F6C",
"+.	c #4A656D",
"@.	c #49666F",
"#.	c #496771",
"$.	c #305D6D",
"%.	c #003A54",
"&.	c #949590",
"*.	c #C6C8C3",
"=.	c #E1E3DE",
"-.	c #E2E5DF",
";.	c #E2E4DF",
">.	c #E0E3DE",
",.	c #C7C9C5",
"'.	c #607A81",
").	c #C4C6C1",
"!.	c #E1E5DE",
"~.	c #D1D6CD",
"{.	c #D0D4CC",
"].	c #D0D5CC",
"^.	c #D2D6CD",
"/.	c #E0E3DC",
"(.	c #C1C4BF",
"_.	c #2F5C6E",
":.	c #82847F",
"<.	c #E2E4E0",
"[.	c #D2D6CE",
"}.	c #D3D7CF",
"|.	c #D5D9D1",
"1.	c #D3D7CE",
"2.	c #E6E8E5",
"3.	c #586F76",
"4.	c #006D00",
"5.	c #7F817C",
"6.	c #E4E6E1",
"7.	c #D1D5CD",
"8.	c #C7C9C2",
"9.	c #C5C6BF",
"0.	c #C6C8BF",
"a.	c #C5C7BF",
"b.	c #C1C5BE",
"c.	c #C2C5BE",
"d.	c #C1C4BE",
"e.	c #C5C8C2",
"f.	c #E9EBE6",
"g.	c #5D6F73",
"h.	c #E4E6E2",
"i.	c #C4C8BF",
"j.	c #DDE2E4",
"k.	c #D1E1F4",
"l.	c #D1E1F5",
"m.	c #E1EDF9",
"n.	c #FFFFFF",
"o.	c #EAEBE9",
"p.	c #C4C9C1",
"q.	c #D4D8D0",
"r.	c #667374",
"s.	c #5C5C5C",
"t.	c #BDC1B9",
"u.	c #D6E2F0",
"v.	c #6194CA",
"w.	c #6899CB",
"x.	c #6798CB",
"y.	c #91B4DA",
"z.	c #FEFEFF",
"A.	c #BEC2BA",
"B.	c #727A79",
"C.	c #525252",
"D.	c #797B76",
"E.	c #BEC2B8",
"F.	c #D5E3EF",
"G.	c #6797CB",
"H.	c #6F9CCE",
"I.	c #719DCD",
"J.	c #7BA5D0",
"K.	c #78A3D1",
"L.	c #77A2CF",
"M.	c #99B9DB",
"N.	c #FEFEFD",
"O.	c #FBFCFB",
"P.	c #FEFEFE",
"Q.	c #FFFEFE",
"R.	c #BEC2BB",
"S.	c #7A7F7B",
"T.	c #737571",
"U.	c #D4D8CF",
"V.	c #D9E2E8",
"W.	c #92B5DB",
"X.	c #93B5DB",
"Y.	c #92B5DA",
"Z.	c #93B4D7",
"`.	c #B0C7DC",
" +	c #A9C4DF",
".+	c #A6C1DC",
"++	c #A5C1DD",
"@+	c #C4D5E7",
"#+	c #FDFDFC",
"$+	c #F4F3F2",
"%+	c #F8F9F8",
"&+	c #FDFDFD",
"*+	c #F3F4F2",
"=+	c #D5D8D0",
"-+	c #80827D",
";+	c #006900",
">+	c #777875",
",+	c #CFD1CA",
"'+	c #E4E1D9",
")+	c #DFDDD3",
"!+	c #E9E8E2",
"~+	c #EEECE6",
"{+	c #EBE8E1",
"]+	c #E7E6DF",
"^+	c #E3E5E0",
"/+	c #DEDFDD",
"(+	c #D2D4CF",
"_+	c #D7D9D4",
":+	c #D6D9D4",
"<+	c #CCCFC8",
"[+	c #D3D6CE",
"}+	c #003951",
"|+	c #787A76",
"1+	c #CBCFC7",
"2+	c #E0E2DE",
"3+	c #E6E7E3",
"4+	c #E0E1DC",
"5+	c #E0E2DD",
"6+	c #E5E5E1",
"7+	c #DDDFDB",
"8+	c #CCD0C7",
"9+	c #E7E9E5",
"0+	c #80827E",
"a+	c #006200",
"b+	c #00435F",
"c+	c #626262",
"d+	c #747572",
"e+	c #D1D2CE",
"f+	c #D8DDD7",
"g+	c #CCD0C6",
"h+	c #E1E2DF",
"i+	c #EEEEEB",
"j+	c #E8E9E4",
"k+	c #ECEDE9",
"l+	c #CACFC7",
"m+	c #D9DDD5",
"n+	c #D2D3CE",
"o+	c #585858",
"p+	c #8C8E8A",
"q+	c #CED0CB",
"r+	c #D2D4CE",
"s+	c #D1D4CE",
"t+	c #C8CAC4",
"u+	c #E3E4E0",
"v+	c #F2F3F1",
"w+	c #EBECE9",
"x+	c #EBECEA",
"y+	c #F0F1EF",
"z+	c #DEE1DC",
"A+	c #C8CCC4",
"B+	c #D0D4CE",
"C+	c #CFD1CB",
"D+	c #999B95",
"E+	c #555555",
"F+	c #797977",
"G+	c #81827F",
"H+	c #80817F",
"I+	c #80817E",
"J+	c #868783",
"K+	c #E4E5E3",
"L+	c #F4F4F3",
"M+	c #EEEEEC",
"N+	c #F3F3F2",
"O+	c #DFE1DD",
"P+	c #617C84",
"Q+	c #52737E",
"R+	c #54747F",
"S+	c #818B8B",
"T+	c #999A96",
"U+	c #005400",
"V+	c #007400",
"W+	c #E3E5E1",
"X+	c #F5F4F4",
"Y+	c #DCDEDB",
"Z+	c #1F586F",
"`+	c #013D58",
" @	c #003F5B",
".@	c #E1E3DF",
"+@	c #F5F5F4",
"@@	c #285E72",
"#@	c #0B4C67",
"$@	c #15495E",
"%@	c #006600",
"&@	c #BFC2BC",
"*@	c #C7C9C6",
"=@	c #AFBABA",
"-@	c #ACB9BB",
";@	c #ECEDEB",
">@	c #F3F2F1",
",@	c #F1F1F0",
"'@	c #E9EAE9",
")@	c #ADBBBC",
"!@	c #C1C7C6",
"~@	c #D5D7D3",
"{@	c #C3C5BF",
"]@	c #005F00",
"^@	c #05435E",
"/@	c #678994",
"(@	c #F7F7F7",
"_@	c #F2F2F1",
":@	c #F2F2F0",
"<@	c #EFF0EE",
"[@	c #C3C5BE",
"}@	c #00344A",
"|@	c #004461",
"1@	c #034764",
"2@	c #849CA2",
"3@	c #F1F1EF",
"4@	c #F4F5F3",
"5@	c #0B4D68",
"6@	c #98ACB0",
"7@	c #F4F4F2",
"8@	c #EFEFED",
"9@	c #F0F0EE",
"0@	c #003A52",
"a@	c #D6D7D2",
"b@	c #FAFAFA",
"c@	c #FAFBFA",
"d@	c #D7D8D3",
"e@	c #006A00",
"f@	c #DCDEDA",
"g@	c #FAFAF9",
"h@	c #DADBD7",
"i@	c #006F00",
"j@	c #DFDFDD",
"k@	c #F7F7F6",
"l@	c #DFE0DC",
"m@	c #E4E6E3",
"n@	c #FEFDFD",
"o@	c #E4E5E2",
"p@	c #005E00",
"q@	c #005B00",
"r@	c #005600",
"s@	c #B5B7B2",
"t@	c #DEE0DE",
"u@	c #AEB0AA",
"                                            . + @ # $ % & *                                     ",
"                                                    = - ; ; ; - > &                             ",
"                                                            , ' ; ; ) .                         ",
"                                                                    ! ; ~                       ",
"                                                                      { ; ' ]                   ",
"                                          ^ / ( _ : _ <                 [ ; ; }                 ",
"                                  | 1 2 3 3 3 3 3 3 3 3 (                 ) ; ; #               ",
"                            4 5 3 3 3 3 3 3 3 3 3 3 3 3 3 3 6 7             ' ' ; 8             ",
"                          9 3 3 3 3 3 3 3 3 3 3 3 3 3 3 3 3 3 3 0             ; ' ; $           ",
"                        a 3 3 3 3 3 3 3 3 3 3 3 3 3 b b 2 3 3 3 3 0           c ; ; d e         ",
"                      2 3 3 3 3 3 3 3 3 3 3 b f a g       h f 3 3 3 i           [ ; ; ~         ",
"                    j 3 3 3 3 3 3 3 3 3 h                     k 3 3 3 l           = ; ; @       ",
"                  : 3 3 3 3 3 3 3 3 0                             j 3 3           , ; ; ;       ",
"                _ 3 3 3 3 3 3 3 j             m n o p q             r 3 l         - ; ; ; s     ",
"              t 3 3 3 3 3 b 3 f         u v w x x x x x y z o A       h j         - ; ; ; =     ",
"            B 3 3 3 3 3 3 3 C         D y x x x x x x x x x x y E       2         F ; ; ; ' G   ",
"            g 3 3 3 3 3 3 f         u x x x x x x x x x x x x x x z     i H       = ; ; ; ; I   ",
"            3 3 3 3 3 3 J         u x x x x x x x x x x x x x x x y       K     L ' ; ; ; ; -   ",
"          M 3 3 3 3 3 3 k         E x x x x x w N   O P x x x x x x Q           % ' ; ; ; ; R   ",
"          S 3 3 3 3 3 3         T x x x x y               U x x x x x             = ; ; ; ; ;   ",
"          f 3 3 3 3 3 S         V x x x x O                 x x x x x W           ! ; ; ; ; ;   ",
"        M 2 3 3 3 3 3         X x x x x x         Y Z Z Z Z `  . . . . .Z Z Z Z ..+.@.#.$.; ; %.",
"        ( 3 3 3 3 3 3         v x x x x       &.*.=.-.;.;.;.;.;.;.;.;.;.;.;.;.;.;.;.;.>.,.'.; { ",
"        i 3 3 3 3 3 k           x x x x       ).!.~.{.].].].].].].].].].].].].].].].{.^./.(._.  ",
"        : 3 3 3 3 3 1           x x x x     :.<.[.}.|.|.|.|.|.|.|.|.|.|.|.|.|.|.|.|.|.}.1.2.3.  ",
"        4.3 3 3 3 3 H           x x x x     5.6.7.[.8.9.0.0.0.0.0.0.0.a.b.c.c.c.c.d.e.[.[.f.g.  ",
"      ( 3 3 3 3 3 3 1           y x x x z   5.h.}.i.j.k.l.l.l.l.l.l.k.m.n.n.n.n.n.n.o.p.q.f.r.  ",
"    r 3 3 3 3 3 3 3 5           s.x x x x   5.h.q.t.u.v.w.w.w.x.x.x.x.y.z.n.n.n.n.n.n.A.|.f.B.  ",
"  5 3 3 3 3 3 3 3 3 b           C.x x x x w D.h.q.E.F.G.H.H.I.J.K.L.L.M.N.O.P.n.n.n.Q.R.|.f.S.  ",
"  3 3 3 3 3 3 3 3 3 0             V x x x x T.h.U.d.V.W.X.Y.Z.`. +.+++@+#+$+%+&+&+&+*+c.=+f.-+  ",
"  4.3 3 3 3 3 3 3 3 ;+            z x x x x >+6.[.{.,+'+'+'+)+!+~+{+{+]+^+/+(+_+_+:+<+{.[+f.5.  ",
"      J b 3 3 3 3 3 K       }+      P x x x |+^+^.}.[.7.7.[.1+2+3+4+5+5+6+7+8+[.^.~.1.}.[.9+0+  ",
"        ;+5 3 3 3 3 a+        b+      c+x x d+e+f+1.[.[.[.}.g+h+i+j+j+j+k+7+l+}.[.[.[.}.m+n+    ",
"            _ 3 3 3 (         ) +       o+x y p+q+r+s+s+s+r+t+u+v+w+x+w+y+z+A+r+s+s+r+B+C+D+    ",
"              3 3 3 (         % ;           E+V F+G+G+H+H+I+J+K+L+M+M+M+N+O+P+Q+R+R+S+T+        ",
"            U+3 3 3 V+          { ;                           W+X+M+M+M+N+Y+Z+; ; `+            ",
"            j 3 3 3 3 9            @; [                       .@+@M+M+M+N+Y+@@#@$@              ",
"          M 3 3 3 3 3 3 %@          R ; ' ~           &@*@=@-@;@>@M+M+M+,@'@)@!@~@{@            ",
"          : 6 j 0 h b 3 3 ]@          ! ; ; ; F c s ^@/@y+(@_@:@M+M+M+M+M+:@_@(@<@[@            ",
"                    S 3 3 g             }@{ |@; ; ; ; 1@2@v+3@M+M+M+M+M+M+M+3@4@{@              ",
"                      k 3 3 a                 @ ; ; ; ; 5@6@7@3@8@8@8@8@8@9@$+C+                ",
"                        S b 3 S                   0@[ @     a@b@9@9@9@9@9@c@d@                  ",
"                          C 3 3 e@                            f@g@9@9@9@g@h@                    ",
"                          i@3 3 3 6 :                           j@k@3@k@l@                      ",
"                          i h k a+C j 3 3 3 :                     m@n@o@                        ",
"                                      ]@S 0 3 3 a %@( p@q@r@      s@t@s@                        ",
"                                                                    u@                          "};
